<?xml version="1.0" encoding="utf-8"?>
<!-- Generator: Adobe Illustrator 20.1.0, SVG Export Plug-In . SVG Version: 6.00 Build 0)  -->
<svg version="1.1" id="Layer_1" xmlns="http://www.w3.org/2000/svg" xmlns:xlink="http://www.w3.org/1999/xlink" x="0px" y="0px"
	 viewBox="0 0 1436.3 720.4" style="enable-background:new 0 0 1436.3 720.4;" xml:space="preserve">
<style type="text/css">
	.st0{fill:url(#SVGID_1_);}
	.st1{fill:url(#SVGID_2_);}
	.st2{fill:url(#SVGID_3_);stroke:#5EBBC0;stroke-width:1.51;}
	.st3{fill:url(#SVGID_4_);}
	.st4{fill:url(#SVGID_5_);}
	.st5{fill:url(#SVGID_6_);}
	.st6{fill:url(#SVGID_7_);}
	.st7{fill:url(#SVGID_8_);}
	.st8{fill:url(#SVGID_9_);}
	.st9{fill:url(#SVGID_10_);}
	.st10{fill:url(#SVGID_11_);}
	.st11{fill:url(#SVGID_12_);}
	.st12{fill:url(#SVGID_13_);}
</style>
<title>righ</title>
<g id="Layer_2">
	<g id="Calque_1">
		
			<linearGradient id="SVGID_1_" gradientUnits="userSpaceOnUse" x1="2160.4001" y1="802.65" x2="2275.4001" y2="802.65" gradientTransform="matrix(-1 0 0 1 2277.8 -121.18)">
			<stop  offset="0" style="stop-color:#B21F40"/>
			<stop  offset="1" style="stop-color:#E62E34"/>
		</linearGradient>
		<path class="st0" d="M112.4,719.5l5-76l-115,55L112.4,719.5z"/>
		
			<linearGradient id="SVGID_2_" gradientUnits="userSpaceOnUse" x1="1945.4" y1="464.65" x2="2099.4001" y2="464.65" gradientTransform="matrix(-1 0 0 1 2277.8 -121.18)">
			<stop  offset="0" style="stop-color:#B21F40"/>
			<stop  offset="1" style="stop-color:#E62E34"/>
		</linearGradient>
		<path class="st1" d="M227.4,385.5l105-84l-154,42L227.4,385.5z"/>
		
			<linearGradient id="SVGID_3_" gradientUnits="userSpaceOnUse" x1="1727.4" y1="544.15" x2="1779.4" y2="544.15" gradientTransform="matrix(-1 0 0 1 2277.8 -121.18)">
			<stop  offset="0" style="stop-color:#B21F40"/>
			<stop  offset="1" style="stop-color:#E62E34"/>
		</linearGradient>
		<path class="st2" d="M506.4,491.5l44-137l-52,25L506.4,491.5z"/>
		
			<linearGradient id="SVGID_4_" gradientUnits="userSpaceOnUse" x1="1651.4" y1="179.92" x2="1821.4" y2="179.92" gradientTransform="matrix(-1 0 0 1 2277.8 -121.18)">
			<stop  offset="0" style="stop-color:#B21F40"/>
			<stop  offset="1" style="stop-color:#E62E34"/>
		</linearGradient>
		<path class="st3" d="M626.4,96.2l-150-95l-20,115L626.4,96.2z"/>
		
			<linearGradient id="SVGID_5_" gradientUnits="userSpaceOnUse" x1="1607.4" y1="277.65" x2="1736.4" y2="277.65" gradientTransform="matrix(-1 0 0 1 2277.8 -121.18)">
			<stop  offset="0" style="stop-color:#B21F40"/>
			<stop  offset="1" style="stop-color:#E62E34"/>
		</linearGradient>
		<path class="st4" d="M621.4,225.5l49-138l-129,77L621.4,225.5z"/>
		
			<linearGradient id="SVGID_6_" gradientUnits="userSpaceOnUse" x1="1556.4" y1="791.15" x2="1643.4" y2="791.15" gradientTransform="matrix(-1 0 0 1 2277.8 -121.18)">
			<stop  offset="0" style="stop-color:#B21F40"/>
			<stop  offset="1" style="stop-color:#E62E34"/>
		</linearGradient>
		<path class="st5" d="M698.4,706.5l23-64l-87-9L698.4,706.5z"/>
		
			<linearGradient id="SVGID_7_" gradientUnits="userSpaceOnUse" x1="1373.4" y1="608.65" x2="1568.4" y2="608.65" gradientTransform="matrix(-1 0 0 1 2277.8 -121.18)">
			<stop  offset="0" style="stop-color:#B21F40"/>
			<stop  offset="1" style="stop-color:#E62E34"/>
		</linearGradient>
		<path class="st6" d="M904.4,541.5l-54-108l-141,103L904.4,541.5z"/>
		
			<linearGradient id="SVGID_8_" gradientUnits="userSpaceOnUse" x1="1390.4" y1="416.15" x2="1530.4" y2="416.15" gradientTransform="matrix(-1 0 0 1 2277.8 -121.18)">
			<stop  offset="0" style="stop-color:#B21F40"/>
			<stop  offset="1" style="stop-color:#E62E34"/>
		</linearGradient>
		<path class="st7" d="M809.4,348.5l78-107l-140,17L809.4,348.5z"/>
		
			<linearGradient id="SVGID_9_" gradientUnits="userSpaceOnUse" x1="1287.4" y1="481.365" x2="1422.4" y2="481.365" gradientTransform="matrix(-1 0 0 1 2277.8 -121.18)">
			<stop  offset="0" style="stop-color:#B21F40"/>
			<stop  offset="1" style="stop-color:#E62E34"/>
		</linearGradient>
		<path class="st8" d="M990.4,400.7l-42-107l-93,133L990.4,400.7z"/>
		
			<linearGradient id="SVGID_10_" gradientUnits="userSpaceOnUse" x1="1112.4" y1="251.65" x2="1167.4" y2="251.65" gradientTransform="matrix(-1 0 0 1 2277.8 -121.18)">
			<stop  offset="0" style="stop-color:#B21F40"/>
			<stop  offset="1" style="stop-color:#E62E34"/>
		</linearGradient>
		<path class="st9" d="M1165.4,192.5l-19-124l-36,80L1165.4,192.5z"/>
		
			<linearGradient id="SVGID_11_" gradientUnits="userSpaceOnUse" x1="932.9" y1="475.65" x2="1117.9" y2="475.65" gradientTransform="matrix(-1 0 0 1 2277.8 -121.18)">
			<stop  offset="0" style="stop-color:#B21F40"/>
			<stop  offset="1" style="stop-color:#E62E34"/>
		</linearGradient>
		<path class="st10" d="M1344.9,437.5l-73-166l-112,83L1344.9,437.5z"/>
		
			<linearGradient id="SVGID_12_" gradientUnits="userSpaceOnUse" x1="948.4" y1="662.15" x2="1025.4" y2="662.15" gradientTransform="matrix(-1 0 0 1 2277.8 -121.18)">
			<stop  offset="0" style="stop-color:#B21F40"/>
			<stop  offset="1" style="stop-color:#E62E34"/>
		</linearGradient>
		<path class="st11" d="M1325.4,625.5l4-169l-77,104L1325.4,625.5z"/>
		
			<linearGradient id="SVGID_13_" gradientUnits="userSpaceOnUse" x1="842.4" y1="221.15" x2="927.4" y2="221.15" gradientTransform="matrix(-1 0 0 1 2277.8 -121.18)">
			<stop  offset="0" style="stop-color:#B21F40"/>
			<stop  offset="1" style="stop-color:#E62E34"/>
		</linearGradient>
		<path class="st12" d="M1421.4,159.5l14-119l-85,26L1421.4,159.5z"/>
	</g>
</g>
</svg>
