<svg width="500" height="500" xmlns="http://www.w3.org/2000/svg" xmlns:xlink="http://www.w3.org/1999/xlink"><defs><path id="a" d="M0 .032h387.968V388H0z"/></defs><g fill="none" fill-rule="evenodd"><path d="M322.668 315.19c-.187-1.896.734-4.616-2.387-5.483-4.58-1.27-9.072-2.883-13.695-3.962-7.278-1.698-14.638-3.04-21.948-4.606-2-.43-3.945-1.11-5.908-1.697-1.751-.523-3.458-1.314-5.247-1.563-2.773-.38-5.625-.215-8.401-.606-12.756-1.79-25.497-3.707-38.25-5.537-2.826-.405-5.678-.64-8.52-.953-.044.152-.088.304-.135.454l18.784 11.128c-1.356.692-1.928.987-2.717 1.39 3.744 2.359 7.217 4.542 11.128 7.005.26-3.202 1.914-2.09 3.252-1.222 14.314 9.275 28.652 18.508 42.856 27.949 3.718 2.474 7.015 5.583 10.454 8.46 4.762 3.984 9.484 8.015 14.208 12.044 1.37 1.169 2.674 1.363 3.062-.681 1.318-6.9 2.783-13.798 3.556-20.766.46-4.181-.371-8.49-.421-12.745-.034-2.871.612-5.777.329-8.61" fill="#FEFEFE"/><g transform="translate(56 56.968)"><mask id="b" fill="#fff"><use xlink:href="#a"/></mask><path d="M310.43 255.422c-.204.695-.195 1.764-.645 2.017-1.694.953-3.537 1.638-5.323 2.423-4.15 1.871-8.172 3.534-12.926 1.357-2.087-.956-4.787-.572-7.669-.84.81 5.142 1.7 9.94 2.292 14.772 1.14 9.296 2.283 18.596 3.054 27.922.24 2.94-.285 6.105-1.177 8.943-2.903 9.241-11.132 13.166-20.602 9.718-3.406-1.244-6.65-3.219-9.605-5.366-6.197-4.505-12.164-9.334-18.19-14.07-.719-.565-1.24-1.38-1.852-2.08-.274-.249-.552-.5-.83-.747-1.538-.89-3.132-1.695-4.605-2.68-21.025-14.037-41.804-28.46-64.128-40.435-14.119-7.579-28.728-14.017-44.019-18.846-2.058-.65-4.22-1.16-6.365-1.31-3.038-.212-4.652 1.255-4.863 4.286-.676 9.768-.243 19.468 1.456 29.141 2.221 12.636 7.9 23.801 14.243 34.707.65 1.12 2.002 1.884 2.478 3.041.641 1.545 1.393 3.565.878 4.91-.438 1.14-2.634 2.31-4.017 2.268-15.348-.443-26.404-7.316-29.185-24.65-2.716-16.94-4.679-33.978-2.974-51.195.306-3.104.773-6.202 1.318-9.275 1.405-7.922 6.072-12.81 13.673-15.488 16.933-5.964 33.82-12.07 50.61-18.423 31.135-11.777 62.19-23.77 93.275-35.682.855-.329 1.683-.732 2.525-1.1v-.804c-5.738-.675-11.464-1.739-17.22-1.96-28.982-1.103-57.96-.582-86.905 1.181-10.958.668-21.904 1.691-32.818 2.892-5.212.575-10.362 1.845-15.495 2.996-2.643.593-5.193 1.005-6.977-1.45-1.748-2.413-.854-4.865.603-7.147 4.182-6.556 9.997-10.09 17.931-10.049 14.594.074 29.188.03 43.782.014 11.43-.012 22.86-.123 34.29-.04 4.02.026 8.04.5 12.057.77l.3-.808c-9.398-5.945-18.799-11.89-28.2-17.834.223-.405.447-.813.668-1.219l7.51 3.406c-7.66-7.775-59.718-32.69-75.354-35.94 1.41.881 2.446 1.532 3.488 2.183l-.08.602c-1.106-.09-2.256-.02-3.314-.295-7.41-1.943-14.842-3.832-22.175-6.047-1.449-.44-3.492-2.239-3.47-3.375.027-1.433 1.623-3.649 3.013-4.11 12.275-4.068 24.61-6.608 37.383-1.476 17.41 6.996 33.352 16.62 49.072 26.683 5.261 3.371 10.375 6.972 15.65 10.327.84.536 2.413.811 3.217.39 21.764-11.476 43.934-22.223 64.636-35.624 4.69-3.034 9.322-6.17 13.815-9.487 1.577-1.164 2.847-2.889 3.913-4.575 1.44-2.276 3.68-3.369 6.237-2.676 6.674 1.8 11.181 6.138 14.242 12.15 1.415 2.78-.616 7.315-4.05 9.302-10.069 5.823-20.098 11.717-30.202 17.484-16.93 9.661-33.906 19.244-51.076 28.984 4.972 3.507 10.112 7.182 15.325 10.756.617.422 1.616.351 2.441.386 14.973.654 29.844 2.031 44.31 6.24 1.892.55 3.738 1.368 5.48 2.298 5.44 2.908 5.874 8.165.791 11.715-3.245 2.265-6.728 4.306-10.35 5.883a1390.794 1390.794 0 0 1-34.274 14.388c-28.93 11.7-57.915 23.28-86.874 34.916-1.363.547-2.697 1.171-3.838 1.67 40.225 5.417 80.506 10.84 121.007 16.295 0-2.125.153-4.62-.034-7.09-.334-4.435-.884-8.854-1.32-13.284-.207-2.109.534-3.843 2.598-4.529 2.087-.692 4.566-.663 5.54 1.521 1.853 4.171 3.166 8.583 4.703 12.894l-.837.287-3.479-10.489c-.157.052-.314.101-.469.152 1.552 6.107 3.11 12.211 4.655 18.321.256 1.007.462 2.028.69 3.043.626 2.778 2.365 3.891 5.107 3.695 2.206-.16 4.517-.283 6.644.193 4.61 1.032 9.205 2.236 13.65 3.808 2.588.916 4.965 2.543 7.27 4.098 2.304 1.554 1.607 3.384-.035 5.067M193.984.032C86.85.032 0 86.882 0 194.016 0 301.151 86.85 388 193.984 388c107.134 0 193.984-86.849 193.984-193.984S301.118.032 193.984.032" fill="#FEFEFE" mask="url(#b)"/></g><path d="M322.668 315.19c-.187-1.896.734-4.616-2.387-5.483-4.58-1.27-9.072-2.883-13.695-3.962-7.278-1.698-14.638-3.038-21.948-4.606-2-.43-3.945-1.11-5.908-1.697-1.751-.523-3.458-1.314-5.247-1.563-2.773-.38-5.625-.215-8.401-.606-12.756-1.79-25.497-3.707-38.25-5.537-2.826-.405-5.678-.64-8.52-.953-.044.152-.088.304-.135.455l18.784 11.127-2.717 1.39c3.744 2.359 7.217 4.54 11.128 7.005.26-3.202 1.914-2.09 3.252-1.222 14.314 9.275 28.652 18.508 42.856 27.949 3.718 2.474 7.015 5.583 10.454 8.46 4.762 3.984 9.484 8.015 14.208 12.044 1.37 1.169 2.674 1.363 3.063-.681 1.317-6.9 2.782-13.798 3.555-20.766.46-4.181-.371-8.49-.421-12.745-.034-2.871.612-5.777.329-8.61" fill="#FEFEFE"/></g></svg>